<?xml version="1.0" encoding="UTF-8"?>
<svg id="cookie" xmlns:rdf="http://www.w3.org/1999/02/22-rdf-syntax-ns#" xmlns="http://www.w3.org/2000/svg" xmlns:cc="http://creativecommons.org/ns#" xmlns:dc="http://purl.org/dc/elements/1.1/" xmlns:svg="http://www.w3.org/2000/svg" id="svg2" viewBox="0 0 465 353"
      version="1.1">
    <title id="title7676">Fortune cookie</title>
    <g id="layer2" transform="translate(-2365.4 1838.7)">
      <g id="g8578" transform="translate(1.2226)">
        <rect id="rect8481" style="color:#000000" height="353" width="462" y="-1838.7" x="2365.4" fill="none"/>
        <g id="g8555" transform="translate(821.59 -389.04)">
          <path id="path8557" d="m1950.2-1352.6c-18.732 3.7349-39.795 12.001-68.034 29.824-42.783 27.002-86.264 71.4-116.25 64.921-66.15-14.289-120.94-14.177-150.99-7.3678-18.954 4.2937-47.431 19.216-71.119 38.582 6.3911 20.928 18.314 42.309 33.029 59.294 19.979-33.712 48.815-61.051 143.66-37.296 100.01 25.05 165.07-54.516 176.52-63.436 31.255-24.348 49.341-17.142 65.398-11.337l43.394-75.897s-34.155-1.5626-55.598 2.7129z" fill="#f9f9f9"/>
          <path id="path8559" transform="translate(0 -1384.5)" fill="#fff" d="m1982.6 36.969c-10.98 0.14072-24.621 0.86775-34.375 2.8125-17.654 3.52-37.704 11.286-65.375 28.75-20.758 13.101-42.232 30.892-62.656 44.875-20.425 13.983-40.052 25.319-59.469 21.125-65.26-14.097-119.54-13.761-147.59-7.4062-15.711 3.5591-41.498 16.613-63.469 33.594 5.2056 14.914 13.279 29.871 23.094 42.969 9.6429-13.946 22.171-26.76 41.5-34 23.71-8.8805 56.326-9.4723 104.62 2.625 47.697 11.947 86.503-0.9301 115.5-18.094 14.499-8.5818 26.446-18.246 35.469-26.344 9.0224-8.0974 14.254-14.06 18.75-17.562 16.51-12.862 30.586-18.015 42.875-18.625 9.2302-0.4581 17.108 1.5783 23.812 3.8438l33.5-58.47c-2.7675-0.03193-2.6361-0.13846-6.125-0.09375z"/>
        </g>
        <path id="path8561" style="color:#000000" fill="#fcb659" d="m2444.9-1783.2c-13.246 23.521-20.824 50.661-20.824 79.579 0 89.717 72.752 162.44 162.47 162.44 89.719 0 162.44-72.722 162.44-162.44 0-28.918-7.5783-56.058-20.824-79.579-37.37 10.224-102.81 32.237-141.62 94.546-29.046-55.275-99.19-87.395-141.65-94.546z"/>
        <path id="path8563" fill="#f79937" d="m2445.2-1783.1-0.6423 0.8657c0.866-0.4017 112.48 108.13 118.93 121.08 7.1821-10.984 14.59-21.178 23.12-27.44-29.134-54.89-99.041-87.289-141.41-94.503z"/>
        <path id="path8565" d="m2728.2-1783.2-2.569 0.3351c7.6804 76.555 12.07 152.55-53.307 216.02 45.774-28.729 76.176-79.66 76.176-137.69 0-28.544-7.3712-55.352-20.301-78.661z" fill="#f79937"/>
        <path id="path8567" fill-rule="evenodd" fill="#f68914" d="m2445.2-1783.1c47.941 25.523 90.124 63.411 125.21 111.86 3.0682-4.2076 6.2156-8.1307 9.522-11.505l0.055-0.055c-30.351-49.351-94.686-84.27-134.79-100.3z"/>
        <path id="path8569" fill="#f68914" d="m2733.5-1754.6-1.7492 0.2282c-2.6574 0.3466 3.2149 43.346 1.3395 63.574-3.2321 34.862-11.968 60.552-11.968 60.552-0.9766 2.8692 1.0604 6.944 3.615 2.7113 6.7279-11.148 21.139-46.314 21.139-74.953 0-19.434-3.6575-53.25-12.376-52.112z"/>
        <path id="path8571" style="color:#000000" fill="#f9f9f9" d="m2810.7-1744.6c-11.662 0.058-27.171 0.6498-38.898 2.9879-10.717 2.1367-22.201 5.7651-35.352 11.812v61.349c20.826-10.048 34.828-4.5733 47.554 0.028l43.394-75.897s-4.8167-0.23-11.951-0.2792c-1.4863-0.01-3.081-0.01-4.747 0z"/>
        <path id="path8574" style="color:#000000" fill="#fdc67d" d="m2451.3-1737.9c-7.3041 16.822-9.377 60.996-3.3252 80.772 10.122 33.075 69.382 99.896 111.14 102.06 64.079 3.3287 119.79-48.746 119.79-112.91 0-20.681-6.1428-52.382-15.616-69.204-26.727 7.3121-73.529 55.94-101.28 100.5-20.774-39.532-80.338-96.112-110.7-101.23z"/>
        <path id="path8576" style="color:#000000" fill="#fff" d="m2803.6-1735.4c-10.98 0.1408-24.621 0.8677-34.375 2.8125-9.8779 1.9694-20.52 5.2916-32.812 10.875v44.281c5.6798-1.9921 11.028-3.0002 16.062-3.25 9.2302-0.4582 17.108 1.5782 23.812 3.8437l33.438-58.469c-2.7675-0.032-2.6361-0.1383-6.125-0.094z"/>
      </g>
    </g>
    <metadata>
      <rdf:RDF>
        <cc:Work>
          <dc:format>image/svg+xml</dc:format>
          <dc:type rdf:resource="http://purl.org/dc/dcmitype/StillImage"/>
          <cc:license rdf:resource="http://creativecommons.org/licenses/publicdomain/"/>
          <dc:publisher>
            <cc:Agent rdf:about="http://openclipart.org/">
              <dc:title>Openclipart</dc:title>
            </cc:Agent>
          </dc:publisher>
          <dc:title>Fortune cookie</dc:title>
          <dc:date>2013-08-15T14:51:05</dc:date>
          <dc:description>Fortune cookie</dc:description>
          <dc:source>http://openclipart.org/detail/181849/fortune-cookie-by-ahninniah-181849</dc:source>
          <dc:creator>
            <cc:Agent>
              <dc:title>AhNinniah</dc:title>
            </cc:Agent>
          </dc:creator>
          <dc:subject>
            <rdf:Bag>
              <rdf:li>Chinese food</rdf:li>
              <rdf:li>Fortune cookie</rdf:li>
              <rdf:li>clip art</rdf:li>
              <rdf:li>clipart</rdf:li>
              <rdf:li>cookie</rdf:li>
              <rdf:li>fortune</rdf:li>
              <rdf:li>image</rdf:li>
              <rdf:li>svg</rdf:li>
              <rdf:li>vector</rdf:li>
            </rdf:Bag>
          </dc:subject>
        </cc:Work>
        <cc:License rdf:about="http://creativecommons.org/licenses/publicdomain/">
          <cc:permits rdf:resource="http://creativecommons.org/ns#Reproduction"/>
          <cc:permits rdf:resource="http://creativecommons.org/ns#Distribution"/>
          <cc:permits rdf:resource="http://creativecommons.org/ns#DerivativeWorks"/>
        </cc:License>
      </rdf:RDF>
    </metadata>
  </svg>